<mxfile host="app.diagrams.net" agent="Mozilla/5.0 (Windows NT 10.0; Win64; x64) AppleWebKit/537.36 (KHTML, like Gecko) Chrome/140.0.0.0 Safari/537.36" version="28.2.5">
  <diagram name="第 1 页" id="o_q2Cqo7U8NymtkbCkqH">
    <mxGraphModel dx="1678" dy="2184" grid="1" gridSize="10" guides="1" tooltips="1" connect="1" arrows="1" fold="1" page="1" pageScale="1" pageWidth="827" pageHeight="1169" math="0" shadow="0">
      <root>
        <mxCell id="0" />
        <mxCell id="1" parent="0" />
        <mxCell id="fiFlDFB3sNAuTkQwED0y-25" style="edgeStyle=none;rounded=0;sketch=1;hachureGap=4;jiggle=2;curveFitting=1;orthogonalLoop=1;jettySize=auto;html=1;exitX=1;exitY=0;exitDx=0;exitDy=0;entryX=0;entryY=0.5;entryDx=0;entryDy=0;fontFamily=Comic Sans MS;dashed=1;fontSize=15;" edge="1" parent="1" source="fiFlDFB3sNAuTkQwED0y-4" target="fiFlDFB3sNAuTkQwED0y-24">
          <mxGeometry relative="1" as="geometry" />
        </mxCell>
        <mxCell id="fiFlDFB3sNAuTkQwED0y-26" value="RPC Request" style="edgeLabel;html=1;align=center;verticalAlign=middle;resizable=0;points=[];sketch=1;hachureGap=4;jiggle=2;curveFitting=1;fontFamily=Comic Sans MS;fontSize=15;" vertex="1" connectable="0" parent="fiFlDFB3sNAuTkQwED0y-25">
          <mxGeometry x="-0.1894" y="-3" relative="1" as="geometry">
            <mxPoint as="offset" />
          </mxGeometry>
        </mxCell>
        <mxCell id="fiFlDFB3sNAuTkQwED0y-4" value="TabletServerServiceProxy::Scan" style="rounded=1;whiteSpace=wrap;html=1;sketch=1;hachureGap=4;jiggle=2;curveFitting=1;fontFamily=Comic Sans MS;fontSize=15;" vertex="1" parent="1">
          <mxGeometry x="298.5" y="420" width="239" height="80" as="geometry" />
        </mxCell>
        <mxCell id="fiFlDFB3sNAuTkQwED0y-22" style="edgeStyle=none;rounded=0;sketch=1;hachureGap=4;jiggle=2;curveFitting=1;orthogonalLoop=1;jettySize=auto;html=1;exitX=0.5;exitY=1;exitDx=0;exitDy=0;entryX=0.5;entryY=0;entryDx=0;entryDy=0;fontFamily=Comic Sans MS;fontSize=15;" edge="1" parent="1" source="fiFlDFB3sNAuTkQwED0y-6" target="fiFlDFB3sNAuTkQwED0y-4">
          <mxGeometry relative="1" as="geometry" />
        </mxCell>
        <mxCell id="fiFlDFB3sNAuTkQwED0y-6" value="KuduScanner::Data::SendScanRpc" style="rounded=1;whiteSpace=wrap;html=1;sketch=1;hachureGap=4;jiggle=2;curveFitting=1;fontFamily=Comic Sans MS;fontSize=15;" vertex="1" parent="1">
          <mxGeometry x="291.5" y="230" width="253" height="80" as="geometry" />
        </mxCell>
        <mxCell id="fiFlDFB3sNAuTkQwED0y-29" style="edgeStyle=none;rounded=0;sketch=1;hachureGap=4;jiggle=2;curveFitting=1;orthogonalLoop=1;jettySize=auto;html=1;exitX=0.5;exitY=1;exitDx=0;exitDy=0;fontFamily=Comic Sans MS;fontSize=15;" edge="1" parent="1" source="fiFlDFB3sNAuTkQwED0y-7" target="fiFlDFB3sNAuTkQwED0y-9">
          <mxGeometry relative="1" as="geometry" />
        </mxCell>
        <mxCell id="fiFlDFB3sNAuTkQwED0y-32" value="&lt;font style=&quot;font-size: 13px;&quot; face=&quot;Comic Sans MS&quot;&gt;scanner.data_&lt;/font&gt;" style="edgeLabel;html=1;align=center;verticalAlign=middle;resizable=0;points=[];sketch=1;hachureGap=4;jiggle=2;curveFitting=1;fontFamily=Architects Daughter;fontSource=https%3A%2F%2Ffonts.googleapis.com%2Fcss%3Ffamily%3DArchitects%2BDaughter;" vertex="1" connectable="0" parent="fiFlDFB3sNAuTkQwED0y-29">
          <mxGeometry x="-0.2176" y="2" relative="1" as="geometry">
            <mxPoint as="offset" />
          </mxGeometry>
        </mxCell>
        <mxCell id="fiFlDFB3sNAuTkQwED0y-7" value="KuduScanner::NextBatch (outer)" style="rounded=1;whiteSpace=wrap;html=1;sketch=1;hachureGap=4;jiggle=2;curveFitting=1;fontFamily=Comic Sans MS;fontSize=15;" vertex="1" parent="1">
          <mxGeometry x="190" y="-370" width="210" height="70" as="geometry" />
        </mxCell>
        <mxCell id="fiFlDFB3sNAuTkQwED0y-19" style="edgeStyle=none;rounded=0;sketch=1;hachureGap=4;jiggle=2;curveFitting=1;orthogonalLoop=1;jettySize=auto;html=1;exitX=0.5;exitY=1;exitDx=0;exitDy=0;entryX=0;entryY=0;entryDx=0;entryDy=0;fontFamily=Comic Sans MS;fontSize=15;" edge="1" parent="1" source="fiFlDFB3sNAuTkQwED0y-9" target="fiFlDFB3sNAuTkQwED0y-6">
          <mxGeometry relative="1" as="geometry" />
        </mxCell>
        <mxCell id="fiFlDFB3sNAuTkQwED0y-20" style="edgeStyle=none;rounded=0;sketch=1;hachureGap=4;jiggle=2;curveFitting=1;orthogonalLoop=1;jettySize=auto;html=1;fontFamily=Comic Sans MS;fontSize=15;exitX=1;exitY=0.5;exitDx=0;exitDy=0;" edge="1" parent="1" source="fiFlDFB3sNAuTkQwED0y-9" target="fiFlDFB3sNAuTkQwED0y-13">
          <mxGeometry relative="1" as="geometry">
            <mxPoint x="630" y="-185" as="sourcePoint" />
          </mxGeometry>
        </mxCell>
        <mxCell id="fiFlDFB3sNAuTkQwED0y-21" style="edgeStyle=none;rounded=0;sketch=1;hachureGap=4;jiggle=2;curveFitting=1;orthogonalLoop=1;jettySize=auto;html=1;exitX=0.75;exitY=1;exitDx=0;exitDy=0;entryX=0.5;entryY=0;entryDx=0;entryDy=0;fontFamily=Comic Sans MS;fontSize=15;" edge="1" parent="1" source="fiFlDFB3sNAuTkQwED0y-9" target="fiFlDFB3sNAuTkQwED0y-12">
          <mxGeometry relative="1" as="geometry" />
        </mxCell>
        <mxCell id="fiFlDFB3sNAuTkQwED0y-9" value="KuduScanner::NextBatch (inner)" style="rounded=1;whiteSpace=wrap;html=1;sketch=1;hachureGap=4;jiggle=2;curveFitting=1;fontFamily=Comic Sans MS;fontSize=15;" vertex="1" parent="1">
          <mxGeometry x="190" y="-220" width="210" height="70" as="geometry" />
        </mxCell>
        <mxCell id="fiFlDFB3sNAuTkQwED0y-18" style="rounded=0;sketch=1;hachureGap=4;jiggle=2;curveFitting=1;orthogonalLoop=1;jettySize=auto;html=1;exitX=0.5;exitY=1;exitDx=0;exitDy=0;entryX=1;entryY=0;entryDx=0;entryDy=0;fontFamily=Comic Sans MS;fontSize=15;" edge="1" parent="1" source="fiFlDFB3sNAuTkQwED0y-11" target="fiFlDFB3sNAuTkQwED0y-6">
          <mxGeometry relative="1" as="geometry" />
        </mxCell>
        <mxCell id="fiFlDFB3sNAuTkQwED0y-11" value="KuduScanner::Data::OpenTablet" style="rounded=1;whiteSpace=wrap;html=1;sketch=1;hachureGap=4;jiggle=2;curveFitting=1;fontFamily=Comic Sans MS;fontSize=15;" vertex="1" parent="1">
          <mxGeometry x="570" y="100" width="250" height="80" as="geometry" />
        </mxCell>
        <mxCell id="fiFlDFB3sNAuTkQwED0y-14" style="rounded=0;sketch=1;hachureGap=4;jiggle=2;curveFitting=1;orthogonalLoop=1;jettySize=auto;html=1;entryX=0;entryY=0;entryDx=0;entryDy=0;fontFamily=Comic Sans MS;exitX=0.5;exitY=1;exitDx=0;exitDy=0;fontSize=15;" edge="1" parent="1" source="fiFlDFB3sNAuTkQwED0y-12" target="fiFlDFB3sNAuTkQwED0y-11">
          <mxGeometry relative="1" as="geometry" />
        </mxCell>
        <mxCell id="fiFlDFB3sNAuTkQwED0y-15" style="rounded=0;sketch=1;hachureGap=4;jiggle=2;curveFitting=1;orthogonalLoop=1;jettySize=auto;html=1;fontFamily=Comic Sans MS;exitX=0.5;exitY=1;exitDx=0;exitDy=0;fontSize=15;entryX=1;entryY=0;entryDx=0;entryDy=0;" edge="1" parent="1" source="fiFlDFB3sNAuTkQwED0y-13" target="fiFlDFB3sNAuTkQwED0y-11">
          <mxGeometry relative="1" as="geometry">
            <mxPoint x="890" y="110" as="targetPoint" />
          </mxGeometry>
        </mxCell>
        <mxCell id="fiFlDFB3sNAuTkQwED0y-27" style="edgeStyle=none;rounded=0;sketch=1;hachureGap=4;jiggle=2;curveFitting=1;orthogonalLoop=1;jettySize=auto;html=1;exitX=0;exitY=0.75;exitDx=0;exitDy=0;entryX=1;entryY=1;entryDx=0;entryDy=0;fontFamily=Comic Sans MS;dashed=1;fontSize=15;" edge="1" parent="1" source="fiFlDFB3sNAuTkQwED0y-24" target="fiFlDFB3sNAuTkQwED0y-4">
          <mxGeometry relative="1" as="geometry" />
        </mxCell>
        <mxCell id="fiFlDFB3sNAuTkQwED0y-28" value="RPC Response" style="edgeLabel;html=1;align=center;verticalAlign=middle;resizable=0;points=[];sketch=1;hachureGap=4;jiggle=2;curveFitting=1;fontFamily=Comic Sans MS;fontSize=15;" vertex="1" connectable="0" parent="fiFlDFB3sNAuTkQwED0y-27">
          <mxGeometry x="0.3395" relative="1" as="geometry">
            <mxPoint as="offset" />
          </mxGeometry>
        </mxCell>
        <mxCell id="fiFlDFB3sNAuTkQwED0y-24" value="Tablet Service" style="swimlane;whiteSpace=wrap;html=1;sketch=1;hachureGap=4;jiggle=2;curveFitting=1;fontFamily=Comic Sans MS;fontSize=15;" vertex="1" parent="1">
          <mxGeometry x="1270" y="260" width="342.5" height="315" as="geometry" />
        </mxCell>
        <mxCell id="fiFlDFB3sNAuTkQwED0y-1" value="TabletServiceImpl::Scan" style="rounded=1;whiteSpace=wrap;html=1;sketch=1;hachureGap=4;jiggle=2;curveFitting=1;fontFamily=Comic Sans MS;fontSize=15;" vertex="1" parent="fiFlDFB3sNAuTkQwED0y-24">
          <mxGeometry x="72.5" y="50" width="190" height="80" as="geometry" />
        </mxCell>
        <mxCell id="fiFlDFB3sNAuTkQwED0y-2" value="TabletServiceImpl::HandleNewScanRequest" style="rounded=1;whiteSpace=wrap;html=1;sketch=1;hachureGap=4;jiggle=2;curveFitting=1;fontFamily=Comic Sans MS;fontSize=15;" vertex="1" parent="fiFlDFB3sNAuTkQwED0y-24">
          <mxGeometry x="12.5" y="180" width="310" height="100" as="geometry" />
        </mxCell>
        <mxCell id="fiFlDFB3sNAuTkQwED0y-3" style="edgeStyle=orthogonalEdgeStyle;rounded=0;sketch=1;hachureGap=4;jiggle=2;curveFitting=1;orthogonalLoop=1;jettySize=auto;html=1;entryX=0.5;entryY=0;entryDx=0;entryDy=0;fontFamily=Comic Sans MS;fontSize=15;" edge="1" parent="fiFlDFB3sNAuTkQwED0y-24" source="fiFlDFB3sNAuTkQwED0y-1" target="fiFlDFB3sNAuTkQwED0y-2">
          <mxGeometry relative="1" as="geometry" />
        </mxCell>
        <mxCell id="fiFlDFB3sNAuTkQwED0y-30" value="kudu::client::KuduScanner" style="swimlane;sketch=1;hachureGap=4;jiggle=2;curveFitting=1;fontFamily=Comic Sans MS;fontSize=14;startSize=40;" vertex="1" parent="1">
          <mxGeometry x="161.5" y="-420" width="958.5" height="980" as="geometry" />
        </mxCell>
        <mxCell id="fiFlDFB3sNAuTkQwED0y-34" style="edgeStyle=none;rounded=0;sketch=1;hachureGap=4;jiggle=2;curveFitting=1;orthogonalLoop=1;jettySize=auto;html=1;exitX=0.5;exitY=1;exitDx=0;exitDy=0;fontFamily=Architects Daughter;fontSource=https%3A%2F%2Ffonts.googleapis.com%2Fcss%3Ffamily%3DArchitects%2BDaughter;" edge="1" parent="fiFlDFB3sNAuTkQwED0y-30" source="fiFlDFB3sNAuTkQwED0y-33" target="fiFlDFB3sNAuTkQwED0y-13">
          <mxGeometry relative="1" as="geometry" />
        </mxCell>
        <mxCell id="fiFlDFB3sNAuTkQwED0y-35" value="&lt;font face=&quot;Comic Sans MS&quot; style=&quot;font-size: 13px;&quot;&gt;scanner::data_&lt;/font&gt;" style="edgeLabel;html=1;align=center;verticalAlign=middle;resizable=0;points=[];sketch=1;hachureGap=4;jiggle=2;curveFitting=1;fontFamily=Architects Daughter;fontSource=https%3A%2F%2Ffonts.googleapis.com%2Fcss%3Ffamily%3DArchitects%2BDaughter;" vertex="1" connectable="0" parent="fiFlDFB3sNAuTkQwED0y-34">
          <mxGeometry x="-0.4265" y="1" relative="1" as="geometry">
            <mxPoint as="offset" />
          </mxGeometry>
        </mxCell>
        <mxCell id="fiFlDFB3sNAuTkQwED0y-33" value="KuduScanner::Open &lt;br&gt;(outer)" style="rounded=1;whiteSpace=wrap;html=1;sketch=1;hachureGap=4;jiggle=2;curveFitting=1;fontFamily=Comic Sans MS;fontSize=15;" vertex="1" parent="fiFlDFB3sNAuTkQwED0y-30">
          <mxGeometry x="633.5" y="50" width="210" height="70" as="geometry" />
        </mxCell>
        <mxCell id="fiFlDFB3sNAuTkQwED0y-12" value="KuduScanner::Data::ReopenCurrentTablet" style="rounded=1;whiteSpace=wrap;html=1;sketch=1;hachureGap=4;jiggle=2;curveFitting=1;fontFamily=Comic Sans MS;fontSize=15;" vertex="1" parent="fiFlDFB3sNAuTkQwED0y-30">
          <mxGeometry x="228.5" y="370" width="300" height="80" as="geometry" />
        </mxCell>
        <mxCell id="fiFlDFB3sNAuTkQwED0y-13" value="KuduScanner::Data::OpenNextTablet" style="rounded=1;whiteSpace=wrap;html=1;sketch=1;hachureGap=4;jiggle=2;curveFitting=1;fontFamily=Comic Sans MS;fontSize=15;" vertex="1" parent="fiFlDFB3sNAuTkQwED0y-30">
          <mxGeometry x="603.5" y="370" width="270" height="80" as="geometry" />
        </mxCell>
      </root>
    </mxGraphModel>
  </diagram>
</mxfile>
